<?xml version="1.0" encoding="UTF-8"?>
<svg id="Capa_1" data-name="Capa 1" xmlns="http://www.w3.org/2000/svg" viewBox="0 0 423 189.76">
  <defs>
    <style>
      .cls-1 {
        fill: #3ba6df;
      }

      .cls-1, .cls-2 {
        stroke-width: 0px;
      }

      .cls-2 {
        fill: #fff;
      }
    </style>
  </defs>
  <path class="cls-1" d="m328.01,154.4c5.84,0,8.24,2.98,7.19,8.92l-3.1,17.64c-.11.63-.49.95-1.16.95h-1.45c-.83,0-1.15-.4-.97-1.19l3.08-17.58c.36-2.09.16-3.6-.6-4.52-.76-.92-2.18-1.38-4.27-1.38h-7.36c-3.46,0-6.35.74-8.65,2.22l-3.03,1.95c0,.4-.05.85-.16,1.35l-3.19,18.17c-.11.65-.5.97-1.19.97h-2.33c-.76,0-1.08-.4-.97-1.19l3.14-17.58c.36-2.09.16-3.6-.6-4.52-.76-.92-2.18-1.38-4.27-1.38h-7.35c-3.43,0-6.31.74-8.65,2.22l-2.97,1.89-3.41,19.58c-.11.65-.51.97-1.19.97h-1.4c-.74,0-1.05-.39-.95-1.15l4.46-25.41c.1-.63.49-.94,1.15-.94h1.58c.66,0,1,.33,1,1l-.16,2.99,1.36-.89c1.96-1.33,3.67-2.18,5.14-2.55,1.47-.37,3.52-.55,6.14-.55h7.3c4.09,0,6.51,1.45,7.24,4.36l1.94-1.26c1.96-1.3,3.68-2.13,5.17-2.52,1.49-.39,3.52-.58,6.11-.58h7.35Z"/>
  <path class="cls-1" d="m415.09,154.38c6.22,0,8.77,2.52,7.65,8.81l-3.07,17.28c-.14.96-.74,1.44-1.78,1.44h-4.07c-1.14,0-1.62-.58-1.44-1.74l2.88-15.98c.28-1.72.11-2.95-.51-3.69-.62-.74-1.8-1.11-3.55-1.11h-15.03c-2.88,0-5.24.6-7.09,1.79l-2.45,1.69c-.04.07-.06.16-.08.26-.02.11-.03.19-.03.26l-2.99,17.09c-.14.95-.73,1.42-1.76,1.42h-3.68c-.57,0-.98-.16-1.23-.47-.25-.32-.32-.74-.21-1.27l2.83-15.98c.32-1.72.17-2.95-.45-3.69-.62-.74-1.8-1.11-3.54-1.11h-15.03c-2.84,0-5.22.6-7.14,1.79l-2.4,1.64-3.15,17.67c-.18.95-.75,1.42-1.71,1.42h-4.16c-1.15,0-1.63-.59-1.45-1.76l4.47-24.33c.18-.96.75-1.44,1.72-1.44h2.8c1.01,0,1.56.5,1.67,1.49l-.05,2.29.43-.27c2.08-1.49,3.87-2.45,5.36-2.88,1.49-.43,3.6-.64,6.33-.64h15.79c4.17,0,6.68,1.42,7.54,4.27l1.08-.75c2.08-1.49,3.87-2.45,5.36-2.88,1.49-.43,3.6-.64,6.33-.64h15.79Z"/>
  <g>
    <path class="cls-2" d="m8.17,181.93c-3.12,0-5.35-.82-6.72-2.47-1.36-1.64-1.77-4.04-1.21-7.19l3.25-18.48c.56-3.18,1.6-5.41,3.12-6.69,1.52-1.28,3.86-1.92,7.01-1.92h15.3c3.05,0,5.25.81,6.59,2.42,1.34,1.61,1.73,3.96,1.18,7.05l-.36,2.06c-.07.48-.34.72-.82.72h-1.58c-.57,0-.8-.3-.69-.91l.32-1.81c.39-2.45.12-4.24-.8-5.38-.92-1.14-2.61-1.7-5.06-1.7h-13.47c-2.43,0-4.19.47-5.3,1.42-1.11.95-1.87,2.64-2.29,5.06l-3.11,17.67c-.42,2.43-.17,4.21.76,5.35.93,1.14,2.61,1.71,5.04,1.71h13.42c2.48,0,4.28-.48,5.39-1.43,1.11-.95,1.91-2.67,2.37-5.15l.54-3.13c.04-.47.32-.7.86-.7h1.68c.62,0,.85.29.71.87l-.6,3.65c-.58,3.31-1.66,5.63-3.25,6.95-1.58,1.33-4.01,1.99-7.28,1.99h-15.01Z"/>
    <path class="cls-2" d="m48.86,181.93c-5.84,0-8.24-2.92-7.18-8.76l1.95-11.19c.49-2.92,1.38-4.92,2.67-5.99,1.28-1.07,3.37-1.61,6.26-1.61h12.14c2.85,0,4.89.74,6.12,2.22,1.23,1.48,1.6,3.66,1.11,6.55l-1.95,11.19c-.53,2.92-1.43,4.92-2.72,5.99-1.29,1.07-3.37,1.61-6.26,1.61h-12.14Zm1.11-3.06h10.5c2.18,0,3.7-.36,4.56-1.08.86-.72,1.47-2.15,1.82-4.3l1.85-10.5c.39-2.18.18-3.75-.63-4.72-.81-.97-2.3-1.45-4.48-1.45h-10.5c-2.18,0-3.7.36-4.56,1.08-.86.72-1.47,2.15-1.82,4.3l-1.85,10.5c-.39,2.18-.18,3.75.63,4.72.81.97,2.3,1.45,4.48,1.45Z"/>
    <path class="cls-2" d="m100.71,154.38c5.84,0,8.24,2.92,7.18,8.76l-3.17,18.11c-.04.46-.32.69-.84.69h-1.71c-.56,0-.8-.28-.73-.83l3.07-17.56c.38-2.15.18-3.71-.6-4.66-.78-.96-2.25-1.43-4.4-1.43h-3.8c-3.58,0-6.6.76-9.07,2.29l-3.13,1.93-3.39,19.6c-.1.45-.4.68-.89.68h-1.76c-.6,0-.83-.28-.69-.84l4.54-26.03c.11-.46.4-.69.9-.69h1.01c.43,0,.76.35.73.78l-.21,3.28,1.8-1.16c1.94-1.23,3.65-2.02,5.15-2.38,1.5-.35,3.55-.53,6.15-.53h3.85Z"/>
    <path class="cls-2" d="m137.09,154.38c.22,0,.39.07.5.22.11.14.15.33.12.55l-.19,1.06c-.03.42-.27.62-.72.62h-12.92l-3.05,17.36c-.28,1.65-.11,2.84.5,3.58.61.74,1.74,1.1,3.39,1.1h8s.8.45.73,1.05l-.21,1.15c-.1.45-.84.25-.84.25h-8.93c-4.72,0-6.66-2.36-5.82-7.07l3.02-17.42h-5.25c-.51,0-.74-.26-.67-.77l.19-1.06c.1-.42.35-.62.77-.62h5.49l1.58-5.51c.1-.41.39-.61.87-.61h.87c.54,0,.78.27.71.82l-.92,5.31h12.77Z"/>
    <path class="cls-2" d="m163.65,154.38c5.7,0,8.06,2.85,7.07,8.55l-3.22,18.27c-.11.49-.4.74-.9.74h-.47c-.58,0-.84-.27-.76-.82l.27-3.54-2.73,1.69c-1.82,1.16-3.38,1.9-4.69,2.21-1.31.31-3.16.46-5.56.46h-6.6c-2.18,0-3.79-.63-4.83-1.88-1.04-1.25-1.35-2.97-.95-5.15l.49-2.67c.44-2.29,1.2-3.9,2.29-4.83,1.09-.93,2.74-1.39,4.96-1.39h18.79l.61-3.4c.37-2.17.21-3.67-.48-4.52-.69-.85-2.12-1.27-4.29-1.27h-10.11c-1.64,0-2.82.3-3.53.9-.71.6-1.21,1.7-1.5,3.31l-.22,1.2c-.04.47-.31.71-.82.71h-1.5c-.57,0-.82-.28-.75-.85l.27-1.28c.43-2.38,1.22-4.05,2.37-5.01,1.15-.96,2.9-1.44,5.25-1.44h11.53Zm-1.91,23.02l3.66-2.25.58-3.19.52-2.88h-17.53c-1.5,0-2.59.28-3.27.84-.68.56-1.14,1.59-1.39,3.09l-.31,2.04c-.24,1.57-.08,2.7.5,3.4.58.7,1.65,1.05,3.22,1.05h6.28c2.83,0,5.41-.7,7.74-2.09Z"/>
    <path class="cls-2" d="m207.65,154.38c.59,0,.82.28.68.83l-4.53,25.68c-.56,3.16-1.68,5.45-3.36,6.87-1.68,1.42-4.09,2.14-7.21,2.14h-17.39c-.23,0-.4-.07-.51-.22-.11-.15-.16-.34-.12-.56l.2-.98c.03-.46.28-.69.73-.69h16.78c2.36,0,4.13-.49,5.29-1.46,1.16-.98,1.95-2.66,2.36-5.06l.87-4.78-1.75,1.08c-1.88,1.2-3.55,1.98-5.01,2.34-1.46.36-3.44.54-5.94.54h-4.51c-5.72,0-8.05-2.84-7-8.52l1.68-9.52c.49-2.91,1.39-4.92,2.71-6.02,1.32-1.1,3.41-1.66,6.29-1.66h4.84c2.67,0,4.74.17,6.2.52,1.46.35,2.9,1.13,4.32,2.34l1.51,1.3,1.04-3.49c.1-.45.4-.68.89-.68h.94Zm-8.67,20.26l3.08-1.93.52-3.08,1.51-8.67-2.4-1.93c-1.81-1.46-4.7-2.19-8.67-2.19h-4.8c-2.12,0-3.59.35-4.39,1.04-.8.7-1.39,2.11-1.78,4.23l-1.51,8.88c-.38,2.19-.2,3.75.55,4.67.75.92,2.2,1.38,4.36,1.38h4.44c3.48,0,6.51-.8,9.09-2.4Z"/>
    <path class="cls-2" d="m234.78,154.38c.63,0,.87.3.72.89l-.22,1.45c-.11.48-.43.72-.95.72h-2.83c-3.64,0-6.68.77-9.13,2.31l-3.15,1.99-3.36,19.51c-.1.45-.4.68-.89.68h-1.57c-.6,0-.83-.28-.69-.84l4.54-26.03c.11-.46.4-.69.9-.69h.31c.59,0,.85.28.78.84l-.22,3.51,2-1.28c2.04-1.3,3.87-2.13,5.48-2.51,1.61-.37,3.79-.56,6.54-.56h1.73Z"/>
    <path class="cls-2" d="m260.25,154.38c5.7,0,8.06,2.85,7.07,8.55l-3.22,18.27c-.11.49-.4.74-.9.74h-.47c-.58,0-.84-.27-.76-.82l.27-3.54-2.73,1.69c-1.82,1.16-3.38,1.9-4.69,2.21-1.31.31-3.16.46-5.56.46h-6.6c-2.18,0-3.79-.63-4.83-1.88-1.04-1.25-1.35-2.97-.95-5.15l.49-2.67c.44-2.29,1.2-3.9,2.29-4.83,1.09-.93,2.74-1.39,4.96-1.39h18.79l.61-3.4c.37-2.17.21-3.67-.48-4.52-.69-.85-2.12-1.27-4.29-1.27h-10.11c-1.64,0-2.82.3-3.53.9-.71.6-1.21,1.7-1.5,3.31l-.22,1.2c-.04.47-.31.71-.82.71h-1.5c-.57,0-.82-.28-.75-.85l.27-1.28c.43-2.38,1.22-4.05,2.37-5.01,1.15-.96,2.9-1.44,5.25-1.44h11.53Zm-1.91,23.02l3.66-2.25.58-3.19.52-2.88h-17.53c-1.5,0-2.59.28-3.27.84-.68.56-1.14,1.59-1.39,3.09l-.31,2.04c-.24,1.57-.08,2.7.5,3.4.58.7,1.65,1.05,3.22,1.05h6.28c2.83,0,5.41-.7,7.74-2.09Z"/>
  </g>
  <path class="cls-2" d="m202.25,5.56c3.89-6.38,8.2-6.98,14.04-1.86l16.01,14.07c.94.78,1.07,1.73.4,2.84l-1.46,2.34c-.74,1.22-1.69,1.35-2.83.39l-14.88-13.14c-1.61-1.38-2.99-1.98-4.14-1.81-1.15.17-2.06,1.44-3.14,3.22l-9.45,15.52c-1.8,2.95-2.9,5.52-2.82,8.17l.22,3.58c.05.08.12.16.22.25.1.09.18.15.26.19l16.22,14.17c.94.78,1.07,1.73.4,2.83l-1.41,2.33c-.37.61-.81.95-1.32,1-.51.06-1.01-.14-1.52-.61l-14.91-13.08c-1.59-1.42-2.96-2.04-4.11-1.87-1.16.17-2.28,1.15-3.36,2.94l-9.53,15.51c-1.78,2.92-2.59,5.78-2.55,8.51l.2,3.49,16.56,14.56c.84.75.97,1.6.4,2.55l-1.64,2.68c-.69,1.13-1.56,1.25-2.62.37l-23.19-20.44c-.88-.79-1.02-1.68-.42-2.68,0,0,.82-1.34,1.1-1.8.56-.91,1.63-1.37,2.6-.77l2.34,1.5v-.61c-.25-3.08-.13-5.52.36-7.32.7-2.61,3.29-6.85,3.29-6.85,0,0,6.72-11.01,8.92-14.61,1.35-2.2,5.29-6.12,8.78-5.21l-.1-1.58c-.25-3.08-.12-5.52.36-7.32.49-1.8,3.59-6.63,3.59-6.63l9.14-14.86Z"/>
  <path class="cls-1" d="m220.75,111.56c-3.89,6.38-8.2,6.98-14.04,1.86l-16.01-14.07c-.94-.78-1.07-1.73-.4-2.84l1.46-2.34c.74-1.22,1.69-1.35,2.83-.39l14.88,13.14c1.61,1.38,2.99,1.98,4.14,1.81,1.15-.17,2.06-1.44,3.14-3.22l9.45-15.52c1.8-2.95,2.9-5.52,2.82-8.17l-.22-3.58c-.05-.08-.12-.16-.22-.25-.1-.09-.18-.15-.26-.19l-16.22-14.17c-.94-.78-1.07-1.73-.4-2.83l1.41-2.33c.37-.61.81-.95,1.32-1,.51-.06,1.01.14,1.52.61l14.91,13.08c1.59,1.42,2.96,2.04,4.11,1.87,1.16-.17,2.28-1.15,3.36-2.94l9.53-15.51c1.78-2.92,2.59-5.78,2.55-8.51l-.2-3.49-16.56-14.56c-.84-.75-.97-1.6-.4-2.55l1.64-2.68c.69-1.13,1.56-1.25,2.62-.37l23.19,20.44c.88.79,1.02,1.68.42,2.68,0,0-.82,1.34-1.1,1.8-.56.91-1.63,1.37-2.6.77l-2.34-1.5v.61c.25,3.08.13,5.52-.36,7.32-.7,2.61-3.29,6.85-3.29,6.85,0,0-6.72,11.01-8.92,14.61-1.35,2.2-5.29,6.12-8.78,5.21l.1,1.58c.25,3.08.12,5.52-.36,7.32-.49,1.8-3.59,6.63-3.59,6.63l-9.14,14.86Z"/>
  <circle class="cls-2" cx="227.48" cy="122.06" r="3.37"/>
</svg>